{
	"patcher" : 	{
		"fileversion" : 1,
		"appversion" : 		{
			"major" : 5,
			"minor" : 1,
			"revision" : 9
		}
,
		"rect" : [ 127.0, 269.0, 228.0, 206.0 ],
		"bglocked" : 0,
		"defrect" : [ 127.0, 269.0, 228.0, 206.0 ],
		"openrect" : [ 0.0, 0.0, 0.0, 0.0 ],
		"openinpresentation" : 1,
		"default_fontsize" : 12.0,
		"default_fontface" : 0,
		"default_fontname" : "Arial",
		"gridonopen" : 0,
		"gridsize" : [ 15.0, 15.0 ],
		"gridsnaponopen" : 0,
		"toolbarvisible" : 1,
		"boxanimatetime" : 200,
		"imprint" : 0,
		"enablehscroll" : 1,
		"enablevscroll" : 1,
		"devicewidth" : 0.0,
		"boxes" : [ 			{
				"box" : 				{
					"maxclass" : "comment",
					"text" : "Balandino Di Donato - 2013",
					"numoutlets" : 0,
					"patching_rect" : [ 45.0, 225.0, 166.0, 20.0 ],
					"presentation" : 1,
					"id" : "obj-5",
					"fontname" : "Arial",
					"fontsize" : 12.0,
					"presentation_rect" : [ 15.0, 180.0, 161.0, 20.0 ],
					"numinlets" : 1
				}

			}
, 			{
				"box" : 				{
					"maxclass" : "comment",
					"text" : "Control panel make you to see the input sends data from Processing",
					"linecount" : 2,
					"presentation_linecount" : 2,
					"numoutlets" : 0,
					"patching_rect" : [ 15.0, 45.0, 230.0, 34.0 ],
					"presentation" : 1,
					"id" : "obj-4",
					"fontname" : "Arial",
					"fontsize" : 12.0,
					"presentation_rect" : [ 15.0, 45.0, 201.0, 34.0 ],
					"numinlets" : 1
				}

			}
, 			{
				"box" : 				{
					"maxclass" : "comment",
					"text" : "controlPannel",
					"numoutlets" : 0,
					"patching_rect" : [ 15.0, 15.0, 153.0, 29.0 ],
					"presentation" : 1,
					"id" : "obj-3",
					"fontname" : "Arial",
					"fontface" : 1,
					"fontsize" : 20.0,
					"presentation_rect" : [ 15.0, 15.0, 153.0, 29.0 ],
					"numinlets" : 1
				}

			}
, 			{
				"box" : 				{
					"maxclass" : "comment",
					"text" : "State:",
					"numoutlets" : 0,
					"patching_rect" : [ 15.0, 135.0, 88.0, 20.0 ],
					"presentation" : 1,
					"id" : "obj-39",
					"fontname" : "Arial",
					"fontsize" : 12.0,
					"presentation_rect" : [ 15.0, 90.0, 88.0, 20.0 ],
					"numinlets" : 1
				}

			}
, 			{
				"box" : 				{
					"maxclass" : "inlet",
					"numoutlets" : 1,
					"patching_rect" : [ 165.0, 90.0, 25.0, 25.0 ],
					"id" : "obj-38",
					"outlettype" : [ "" ],
					"numinlets" : 0,
					"comment" : "State"
				}

			}
, 			{
				"box" : 				{
					"maxclass" : "message",
					"text" : "updateObject",
					"numoutlets" : 1,
					"patching_rect" : [ 105.0, 135.0, 134.0, 18.0 ],
					"presentation" : 1,
					"id" : "obj-37",
					"fontname" : "Arial",
					"outlettype" : [ "" ],
					"bgcolor" : [ 1.0, 1.0, 1.0, 1.0 ],
					"bgcolor2" : [ 1.0, 1.0, 1.0, 1.0 ],
					"gradient" : 1,
					"fontsize" : 12.0,
					"presentation_rect" : [ 60.0, 90.0, 80.0, 18.0 ],
					"numinlets" : 2
				}

			}
, 			{
				"box" : 				{
					"maxclass" : "inlet",
					"numoutlets" : 1,
					"patching_rect" : [ 45.0, 90.0, 25.0, 25.0 ],
					"id" : "obj-36",
					"outlettype" : [ "" ],
					"numinlets" : 0,
					"comment" : "Angolo"
				}

			}
, 			{
				"box" : 				{
					"maxclass" : "inlet",
					"numoutlets" : 1,
					"patching_rect" : [ 75.0, 90.0, 25.0, 25.0 ],
					"id" : "obj-32",
					"outlettype" : [ "" ],
					"numinlets" : 0,
					"comment" : "Asse Y"
				}

			}
, 			{
				"box" : 				{
					"maxclass" : "inlet",
					"numoutlets" : 1,
					"patching_rect" : [ 105.0, 90.0, 25.0, 25.0 ],
					"id" : "obj-30",
					"outlettype" : [ "" ],
					"numinlets" : 0,
					"comment" : "Asse X"
				}

			}
, 			{
				"box" : 				{
					"maxclass" : "inlet",
					"numoutlets" : 1,
					"patching_rect" : [ 135.0, 90.0, 25.0, 25.0 ],
					"id" : "obj-29",
					"outlettype" : [ "" ],
					"numinlets" : 0,
					"comment" : "ID"
				}

			}
, 			{
				"box" : 				{
					"maxclass" : "message",
					"text" : "3.284771",
					"numoutlets" : 1,
					"patching_rect" : [ 105.0, 195.0, 134.0, 18.0 ],
					"presentation" : 1,
					"id" : "obj-18",
					"fontname" : "Arial",
					"outlettype" : [ "" ],
					"bgcolor" : [ 1.0, 1.0, 1.0, 1.0 ],
					"bgcolor2" : [ 1.0, 1.0, 1.0, 1.0 ],
					"gradient" : 1,
					"fontsize" : 12.0,
					"presentation_rect" : [ 75.0, 150.0, 80.0, 18.0 ],
					"numinlets" : 2
				}

			}
, 			{
				"box" : 				{
					"maxclass" : "comment",
					"text" : "Rotation:",
					"numoutlets" : 0,
					"patching_rect" : [ 15.0, 195.0, 88.0, 20.0 ],
					"presentation" : 1,
					"id" : "obj-19",
					"fontname" : "Arial",
					"fontsize" : 12.0,
					"presentation_rect" : [ 15.0, 150.0, 88.0, 20.0 ],
					"numinlets" : 1
				}

			}
, 			{
				"box" : 				{
					"maxclass" : "message",
					"text" : "0.57948",
					"numoutlets" : 1,
					"patching_rect" : [ 105.0, 180.0, 134.0, 18.0 ],
					"presentation" : 1,
					"id" : "obj-16",
					"fontname" : "Arial",
					"outlettype" : [ "" ],
					"bgcolor" : [ 1.0, 1.0, 1.0, 1.0 ],
					"bgcolor2" : [ 1.0, 1.0, 1.0, 1.0 ],
					"gradient" : 1,
					"fontsize" : 12.0,
					"presentation_rect" : [ 60.0, 135.0, 80.0, 18.0 ],
					"numinlets" : 2
				}

			}
, 			{
				"box" : 				{
					"maxclass" : "comment",
					"text" : "Y Axis:",
					"numoutlets" : 0,
					"patching_rect" : [ 15.0, 180.0, 88.0, 20.0 ],
					"presentation" : 1,
					"id" : "obj-17",
					"fontname" : "Arial",
					"fontsize" : 12.0,
					"presentation_rect" : [ 15.0, 135.0, 88.0, 20.0 ],
					"numinlets" : 1
				}

			}
, 			{
				"box" : 				{
					"maxclass" : "message",
					"text" : "0.907348",
					"numoutlets" : 1,
					"patching_rect" : [ 105.0, 165.0, 134.0, 18.0 ],
					"presentation" : 1,
					"id" : "obj-14",
					"fontname" : "Arial",
					"outlettype" : [ "" ],
					"bgcolor" : [ 1.0, 1.0, 1.0, 1.0 ],
					"bgcolor2" : [ 1.0, 1.0, 1.0, 1.0 ],
					"gradient" : 1,
					"fontsize" : 12.0,
					"presentation_rect" : [ 60.0, 120.0, 80.0, 18.0 ],
					"numinlets" : 2
				}

			}
, 			{
				"box" : 				{
					"maxclass" : "comment",
					"text" : "X Axis",
					"numoutlets" : 0,
					"patching_rect" : [ 15.0, 165.0, 88.0, 20.0 ],
					"presentation" : 1,
					"id" : "obj-15",
					"fontname" : "Arial",
					"fontsize" : 12.0,
					"presentation_rect" : [ 15.0, 120.0, 88.0, 20.0 ],
					"numinlets" : 1
				}

			}
, 			{
				"box" : 				{
					"maxclass" : "message",
					"text" : "5",
					"numoutlets" : 1,
					"patching_rect" : [ 105.0, 150.0, 134.0, 18.0 ],
					"presentation" : 1,
					"id" : "obj-12",
					"fontname" : "Arial",
					"outlettype" : [ "" ],
					"bgcolor" : [ 1.0, 1.0, 1.0, 1.0 ],
					"bgcolor2" : [ 1.0, 1.0, 1.0, 1.0 ],
					"gradient" : 1,
					"fontsize" : 12.0,
					"presentation_rect" : [ 45.0, 105.0, 80.0, 18.0 ],
					"numinlets" : 2
				}

			}
, 			{
				"box" : 				{
					"maxclass" : "comment",
					"text" : "ID:",
					"numoutlets" : 0,
					"patching_rect" : [ 15.0, 150.0, 88.0, 20.0 ],
					"presentation" : 1,
					"id" : "obj-13",
					"fontname" : "Arial",
					"fontsize" : 12.0,
					"presentation_rect" : [ 15.0, 105.0, 88.0, 20.0 ],
					"numinlets" : 1
				}

			}
 ],
		"lines" : [ 			{
				"patchline" : 				{
					"source" : [ "obj-38", 0 ],
					"destination" : [ "obj-37", 1 ],
					"hidden" : 0,
					"midpoints" : [ 174.5, 117.0, 229.5, 117.0 ]
				}

			}
, 			{
				"patchline" : 				{
					"source" : [ "obj-29", 0 ],
					"destination" : [ "obj-12", 1 ],
					"hidden" : 0,
					"midpoints" : [ 144.5, 132.0, 240.0, 132.0, 240.0, 147.0, 229.5, 147.0 ]
				}

			}
, 			{
				"patchline" : 				{
					"source" : [ "obj-30", 0 ],
					"destination" : [ "obj-14", 1 ],
					"hidden" : 0,
					"midpoints" : [ 114.5, 132.0, 240.0, 132.0, 240.0, 162.0, 229.5, 162.0 ]
				}

			}
, 			{
				"patchline" : 				{
					"source" : [ "obj-32", 0 ],
					"destination" : [ "obj-16", 1 ],
					"hidden" : 0,
					"midpoints" : [ 84.5, 132.0, 249.0, 132.0, 249.0, 177.0, 229.5, 177.0 ]
				}

			}
, 			{
				"patchline" : 				{
					"source" : [ "obj-36", 0 ],
					"destination" : [ "obj-18", 1 ],
					"hidden" : 0,
					"midpoints" : [ 54.5, 132.0, 249.0, 132.0, 249.0, 192.0, 229.5, 192.0 ]
				}

			}
 ]
	}

}
