{
	"patcher" : 	{
		"fileversion" : 1,
		"appversion" : 		{
			"major" : 5,
			"minor" : 1,
			"revision" : 9
		}
,
		"rect" : [ 864.0, 46.0, 303.0, 431.0 ],
		"bglocked" : 0,
		"defrect" : [ 864.0, 46.0, 303.0, 431.0 ],
		"openrect" : [ 0.0, 0.0, 0.0, 0.0 ],
		"openinpresentation" : 0,
		"default_fontsize" : 12.0,
		"default_fontface" : 0,
		"default_fontname" : "Arial",
		"gridonopen" : 0,
		"gridsize" : [ 15.0, 15.0 ],
		"gridsnaponopen" : 0,
		"toolbarvisible" : 1,
		"boxanimatetime" : 200,
		"imprint" : 0,
		"enablehscroll" : 1,
		"enablevscroll" : 1,
		"devicewidth" : 0.0,
		"boxes" : [ 			{
				"box" : 				{
					"maxclass" : "comment",
					"text" : "Balandino Di Donato - 2013",
					"fontsize" : 12.0,
					"numinlets" : 1,
					"patching_rect" : [ 60.0, 405.0, 168.0, 20.0 ],
					"numoutlets" : 0,
					"id" : "obj-35",
					"fontname" : "Arial"
				}

			}
, 			{
				"box" : 				{
					"maxclass" : "comment",
					"text" : "Data Out",
					"fontsize" : 12.0,
					"numinlets" : 1,
					"patching_rect" : [ 15.0, 375.0, 73.0, 20.0 ],
					"numoutlets" : 0,
					"id" : "obj-14",
					"fontname" : "Arial"
				}

			}
, 			{
				"box" : 				{
					"maxclass" : "comment",
					"text" : "Value",
					"fontsize" : 12.0,
					"numinlets" : 1,
					"patching_rect" : [ 180.0, 105.0, 73.0, 20.0 ],
					"numoutlets" : 0,
					"id" : "obj-13",
					"fontname" : "Arial"
				}

			}
, 			{
				"box" : 				{
					"maxclass" : "comment",
					"text" : "selected ID",
					"fontsize" : 12.0,
					"numinlets" : 1,
					"patching_rect" : [ 90.0, 105.0, 73.0, 20.0 ],
					"numoutlets" : 0,
					"id" : "obj-11",
					"fontname" : "Arial"
				}

			}
, 			{
				"box" : 				{
					"maxclass" : "comment",
					"text" : "ID",
					"fontsize" : 12.0,
					"numinlets" : 1,
					"patching_rect" : [ 15.0, 105.0, 27.0, 20.0 ],
					"numoutlets" : 0,
					"id" : "obj-10",
					"fontname" : "Arial"
				}

			}
, 			{
				"box" : 				{
					"maxclass" : "comment",
					"text" : "fid1 make a test of the ID and if it is like a selected ID the input values from the third go out  to the respective outlet, else they will be stopped.",
					"linecount" : 3,
					"fontsize" : 12.0,
					"numinlets" : 1,
					"patching_rect" : [ 15.0, 45.0, 282.0, 48.0 ],
					"numoutlets" : 0,
					"id" : "obj-9",
					"fontname" : "Arial"
				}

			}
, 			{
				"box" : 				{
					"maxclass" : "comment",
					"text" : "tuioValue1",
					"fontface" : 1,
					"fontsize" : 20.0,
					"numinlets" : 1,
					"patching_rect" : [ 15.0, 15.0, 237.0, 29.0 ],
					"numoutlets" : 0,
					"id" : "obj-8",
					"fontname" : "Arial"
				}

			}
, 			{
				"box" : 				{
					"maxclass" : "newobj",
					"text" : "delay 1",
					"fontsize" : 12.0,
					"numinlets" : 2,
					"patching_rect" : [ 195.0, 195.0, 49.0, 20.0 ],
					"numoutlets" : 1,
					"id" : "obj-5",
					"fontname" : "Arial",
					"outlettype" : [ "bang" ]
				}

			}
, 			{
				"box" : 				{
					"maxclass" : "message",
					"fontsize" : 12.0,
					"numinlets" : 2,
					"patching_rect" : [ 195.0, 225.0, 70.0, 18.0 ],
					"numoutlets" : 1,
					"id" : "obj-2",
					"fontname" : "Arial",
					"outlettype" : [ "" ]
				}

			}
, 			{
				"box" : 				{
					"maxclass" : "inlet",
					"numinlets" : 0,
					"patching_rect" : [ 135.0, 135.0, 25.0, 25.0 ],
					"numoutlets" : 1,
					"id" : "obj-12",
					"outlettype" : [ "" ],
					"comment" : "Selected ID"
				}

			}
, 			{
				"box" : 				{
					"maxclass" : "newobj",
					"text" : "loadmess 0",
					"fontsize" : 12.0,
					"numinlets" : 1,
					"patching_rect" : [ 45.0, 300.0, 72.0, 20.0 ],
					"numoutlets" : 1,
					"id" : "obj-4",
					"fontname" : "Arial",
					"outlettype" : [ "" ]
				}

			}
, 			{
				"box" : 				{
					"maxclass" : "outlet",
					"numinlets" : 1,
					"patching_rect" : [ 15.0, 345.0, 25.0, 25.0 ],
					"numoutlets" : 0,
					"id" : "obj-17",
					"comment" : "Value"
				}

			}
, 			{
				"box" : 				{
					"maxclass" : "newobj",
					"text" : "gate",
					"fontsize" : 12.0,
					"numinlets" : 2,
					"patching_rect" : [ 15.0, 255.0, 184.0, 20.0 ],
					"numoutlets" : 1,
					"id" : "obj-6",
					"fontname" : "Arial",
					"outlettype" : [ "" ]
				}

			}
, 			{
				"box" : 				{
					"maxclass" : "inlet",
					"numinlets" : 0,
					"patching_rect" : [ 180.0, 135.0, 25.0, 25.0 ],
					"numoutlets" : 1,
					"id" : "obj-7",
					"outlettype" : [ "" ],
					"comment" : "Value"
				}

			}
, 			{
				"box" : 				{
					"maxclass" : "inlet",
					"numinlets" : 0,
					"patching_rect" : [ 15.0, 135.0, 25.0, 25.0 ],
					"numoutlets" : 1,
					"id" : "obj-3",
					"outlettype" : [ "" ],
					"comment" : "ID"
				}

			}
, 			{
				"box" : 				{
					"maxclass" : "newobj",
					"text" : "if $i1==$i2 then 1 else 0",
					"fontsize" : 12.0,
					"numinlets" : 2,
					"patching_rect" : [ 15.0, 180.0, 139.0, 20.0 ],
					"numoutlets" : 1,
					"id" : "obj-1",
					"fontname" : "Arial",
					"outlettype" : [ "" ]
				}

			}
 ],
		"lines" : [ 			{
				"patchline" : 				{
					"source" : [ "obj-2", 0 ],
					"destination" : [ "obj-6", 1 ],
					"hidden" : 0,
					"midpoints" : [ 204.5, 243.0, 189.5, 243.0 ]
				}

			}
, 			{
				"patchline" : 				{
					"source" : [ "obj-7", 0 ],
					"destination" : [ "obj-2", 1 ],
					"hidden" : 0,
					"midpoints" : [ 189.5, 180.0, 255.5, 180.0 ]
				}

			}
, 			{
				"patchline" : 				{
					"source" : [ "obj-12", 0 ],
					"destination" : [ "obj-1", 1 ],
					"hidden" : 0,
					"midpoints" : [ 144.5, 162.0, 144.5, 162.0 ]
				}

			}
, 			{
				"patchline" : 				{
					"source" : [ "obj-3", 0 ],
					"destination" : [ "obj-1", 0 ],
					"hidden" : 0,
					"midpoints" : [ 24.5, 162.0, 24.5, 162.0 ]
				}

			}
, 			{
				"patchline" : 				{
					"source" : [ "obj-1", 0 ],
					"destination" : [ "obj-6", 0 ],
					"hidden" : 0,
					"midpoints" : [ 24.5, 201.0, 24.5, 201.0 ]
				}

			}
, 			{
				"patchline" : 				{
					"source" : [ "obj-6", 0 ],
					"destination" : [ "obj-17", 0 ],
					"hidden" : 0,
					"midpoints" : [ 24.5, 276.0, 24.5, 276.0 ]
				}

			}
, 			{
				"patchline" : 				{
					"source" : [ "obj-4", 0 ],
					"destination" : [ "obj-17", 0 ],
					"hidden" : 0,
					"midpoints" : [ 54.5, 330.0, 24.5, 330.0 ]
				}

			}
, 			{
				"patchline" : 				{
					"source" : [ "obj-5", 0 ],
					"destination" : [ "obj-2", 0 ],
					"hidden" : 0,
					"midpoints" : [ 204.5, 216.0, 204.5, 216.0 ]
				}

			}
, 			{
				"patchline" : 				{
					"source" : [ "obj-7", 0 ],
					"destination" : [ "obj-5", 0 ],
					"hidden" : 0,
					"midpoints" : [ 189.5, 180.0, 204.5, 180.0 ]
				}

			}
, 			{
				"patchline" : 				{
					"source" : [ "obj-7", 0 ],
					"destination" : [ "obj-6", 1 ],
					"hidden" : 0,
					"midpoints" : [ 189.5, 162.0, 189.5, 162.0 ]
				}

			}
 ]
	}

}
